<svg width="50" height="44" viewBox="0 0 50 44" fill="none" xmlns="http://www.w3.org/2000/svg">
<path d="M39.0873 13.4975C38.1504 14.4344 38.1504 15.9532 39.0873 16.8901C40.0242 17.827 41.5429 17.827 42.4798 16.8901L39.0873 13.4975ZM48.8772 10.4928C49.8141 9.55595 49.8141 8.03694 48.8772 7.10007C47.9403 6.1632 46.4216 6.1632 45.4847 7.10007L48.8772 10.4928ZM45.4847 10.4928C46.4216 11.4297 47.9403 11.4297 48.8772 10.4928C49.8141 9.55595 49.8141 8.03694 48.8772 7.10007L45.4847 10.4928ZM42.4798 0.702653C41.5429 -0.234218 40.0242 -0.234218 39.0873 0.702653C38.1504 1.63952 38.1504 3.15853 39.0873 4.0954L42.4798 0.702653ZM47.181 11.1955C48.5059 11.1955 49.58 10.1214 49.58 8.79644C49.58 7.47151 48.5059 6.39741 47.181 6.39741V11.1955ZM20.7641 20.2728C20.0361 21.3795 20.3428 22.8673 21.4499 23.5956C22.5567 24.3236 24.0444 24.0169 24.7727 22.9098L20.7641 20.2728ZM24.7727 22.9098C25.5008 21.803 25.194 20.3153 24.0869 19.587C22.9802 18.8589 21.4924 19.1657 20.7641 20.2728L24.7727 22.9098ZM2.39903 31.9871C1.07409 31.9871 0 33.0612 0 34.3861C0 35.711 1.07409 36.7852 2.39903 36.7852V31.9871ZM24.7727 20.2728C24.0444 19.1657 22.5567 18.8589 21.4499 19.587C20.3428 20.3153 20.0361 21.803 20.7641 22.9098L24.7727 20.2728ZM47.181 36.7852C48.5059 36.7852 49.58 35.711 49.58 34.3861C49.58 33.0612 48.5059 31.9871 47.181 31.9871V36.7852ZM20.7641 22.9098C21.4924 24.0169 22.9802 24.3236 24.0869 23.5956C25.194 22.8673 25.5008 21.3795 24.7727 20.2728L20.7641 22.9098ZM2.39903 6.39741C1.07409 6.39741 0 7.47151 0 8.79644C0 10.1214 1.07409 11.1955 2.39903 11.1955V6.39741ZM42.4798 26.2924C41.5429 25.3555 40.0242 25.3555 39.0873 26.2924C38.1504 27.2293 38.1504 28.7481 39.0873 29.685L42.4798 26.2924ZM45.4847 36.0824C46.4216 37.0193 47.9403 37.0193 48.8772 36.0824C49.8141 35.1455 49.8141 33.6268 48.8772 32.6898L45.4847 36.0824ZM48.8772 36.0824C49.8141 35.1455 49.8141 33.6268 48.8772 32.6898C47.9403 31.7529 46.4216 31.7529 45.4847 32.6898L48.8772 36.0824ZM39.0873 39.0873C38.1504 40.0242 38.1504 41.5429 39.0873 42.4798C40.0242 43.4167 41.5429 43.4167 42.4798 42.4798L39.0873 39.0873ZM42.4798 16.8901L48.8772 10.4928L45.4847 7.10007L39.0873 13.4975L42.4798 16.8901ZM48.8772 7.10007L42.4798 0.702653L39.0873 4.0954L45.4847 10.4928L48.8772 7.10007ZM47.181 6.39741H39.8239L39.8217 11.1955H47.181V6.39741ZM39.8239 6.39741C33.6284 6.3914 27.848 9.50525 24.4426 14.6814L28.4512 17.3184C30.968 13.4926 35.2421 11.191 39.8217 11.1955L39.8239 6.39741ZM24.4426 14.6814L20.7641 20.2728L24.7727 22.9098L28.4512 17.3184L24.4426 14.6814ZM20.7641 20.2728L17.0857 25.8641L21.0942 28.5011L24.7727 22.9098L20.7641 20.2728ZM17.0857 25.8641C14.5715 29.6859 10.3035 31.9871 5.72882 31.9871L5.72889 36.7852C11.9182 36.7848 17.6925 33.6719 21.0942 28.5011L17.0857 25.8641ZM5.72882 31.9871H2.39903V36.7852H5.72889L5.72882 31.9871ZM20.7641 22.9098L24.4426 28.5011L28.4512 25.8641L24.7727 20.2728L20.7641 22.9098ZM24.4426 28.5011C27.848 33.6773 33.6306 36.7912 39.8262 36.7852L39.8239 31.9871C35.2443 31.9916 30.968 29.6901 28.4512 25.8641L24.4426 28.5011ZM39.8262 36.7852H47.181V31.9871H39.8239L39.8262 36.7852ZM24.7727 20.2728L21.0942 14.6814L17.0857 17.3184L20.7641 22.9098L24.7727 20.2728ZM21.0942 14.6814C17.6925 9.51069 11.9183 6.39757 5.72895 6.39741L5.72882 11.1955C10.3035 11.1956 14.5714 13.4966 17.0857 17.3184L21.0942 14.6814ZM5.72895 6.39741H2.39903V11.1955H5.72882L5.72895 6.39741ZM39.0873 29.685L45.4847 36.0824L48.8772 32.6898L42.4798 26.2924L39.0873 29.685ZM45.4847 32.6898L39.0873 39.0873L42.4798 42.4798L48.8772 36.0824L45.4847 32.6898Z" fill="white"/>
</svg>