<svg width="20" height="20" viewBox="0 0 20 20" fill="none" xmlns="http://www.w3.org/2000/svg">
<path fill-rule="evenodd" clip-rule="evenodd" d="M7.32528 1.78314C8.31595 -0.59438 11.6841 -0.59438 12.6747 1.78314C12.8681 2.24719 13.4146 2.4618 13.8773 2.24824C16.3379 1.11257 18.8875 3.66215 17.7518 6.12275C17.5382 6.58546 17.7528 7.13195 18.2168 7.32529C20.5944 8.3159 20.5944 11.6841 18.2168 12.6747C17.7528 12.8681 17.5382 13.4146 17.7518 13.8773C18.8875 16.3378 16.3379 18.8874 13.8773 17.7517C13.4146 17.5382 12.8681 17.7528 12.6747 18.2169C11.6841 20.5944 8.31595 20.5944 7.32528 18.2169C7.13193 17.7528 6.58545 17.5382 6.12274 17.7517C3.66214 18.8874 1.11258 16.3378 2.24823 13.8773C2.46179 13.4146 2.24719 12.8681 1.78314 12.6747C-0.594381 11.6841 -0.594381 8.3159 1.78314 7.32529C2.24719 7.13195 2.46179 6.58546 2.24823 6.12275C1.11258 3.66215 3.66214 1.11257 6.12274 2.24824C6.58545 2.4618 7.13193 2.24719 7.32528 1.78314ZM5.9899 10.0001C5.9899 7.78545 7.7852 5.99015 9.99981 5.99015C12.2144 5.99015 14.0097 7.78545 14.0097 10.0001C14.0097 12.2146 12.2144 14.01 9.99981 14.01C7.7852 14.01 5.9899 12.2146 5.9899 10.0001Z" fill="white"/>
</svg>