<svg width="50" height="50" viewBox="0 0 50 50" fill="none" xmlns="http://www.w3.org/2000/svg">
<path fill-rule="evenodd" clip-rule="evenodd" d="M24.792 0C38.4843 0 49.5839 11.0997 49.584 24.792C49.584 38.4843 38.4843 49.584 24.792 49.584C11.0997 49.5839 0 38.4843 0 24.792C5.97867e-05 11.0998 11.0998 5.97905e-05 24.792 0ZM16.7998 10.3877C14.6576 10.3877 12.9248 12.9501 12.9248 16.1074V33.4512C12.9248 36.6082 14.6588 39.168 16.7998 39.168C18.9388 39.1679 20.6719 36.6071 20.6719 33.4512V16.1074C20.6719 12.9503 18.9373 10.3878 16.7998 10.3877ZM32.874 10.3877C30.734 10.3877 28.998 12.9501 28.998 16.1074V33.4512C28.998 36.6082 30.734 39.168 32.874 39.168C35.0134 39.1677 36.748 36.607 36.748 33.4512V16.1074C36.748 12.9505 35.0134 10.388 32.874 10.3877Z" fill="white"/>
</svg>